<svg width="121" height="25" viewBox="0 0 121 25" fill="none" xmlns="http://www.w3.org/2000/svg">
<g clip-path="url(#clip0_12_12982)">
<path d="M22.8003 0H1.35229C0.974906 0 0.655181 0.131035 0.393108 0.393108C0.131035 0.655181 0 0.974906 0 1.35229V22.8003C0 23.1776 0.131035 23.4974 0.393108 23.7594C0.655181 24.0215 0.974906 24.1525 1.35229 24.1525H12.8939V14.8123H9.74907V11.1643H12.8939V8.45968C12.8939 6.90821 13.329 5.71841 14.1991 4.89026C15.0691 4.06211 16.2065 3.64804 17.6112 3.64804C18.0725 3.64804 18.539 3.65852 19.0107 3.67949C19.4824 3.70045 19.9489 3.74239 20.4102 3.80528V7.04449H18.4918C17.737 7.04449 17.2443 7.20697 17.0137 7.53194C16.7831 7.85692 16.6678 8.29195 16.6678 8.83706V11.1643H20.2844L19.8126 14.8123H16.6678V24.1525H22.8003C23.1776 24.1525 23.4974 24.0215 23.7594 23.7594C24.0215 23.4974 24.1525 23.1776 24.1525 22.8003V1.35229C24.1525 0.974906 24.0215 0.655181 23.7594 0.393108C23.4974 0.131035 23.1776 0 22.8003 0Z" fill="white"/>
</g>
<g clip-path="url(#clip1_12_12982)">
<path d="M70.9528 0H49.5049C49.1275 0 48.8078 0.131035 48.5457 0.393108C48.2836 0.655181 48.1526 0.974906 48.1526 1.35229V22.8003C48.1526 23.1776 48.2836 23.4974 48.5457 23.7594C48.8078 24.0215 49.1275 24.1525 49.5049 24.1525H70.9528C71.3302 24.1525 71.6499 24.0215 71.912 23.7594C72.1741 23.4974 72.3051 23.1776 72.3051 22.8003V1.35229C72.3051 0.974906 72.1741 0.655181 71.912 0.393108C71.6499 0.131035 71.3302 0 70.9528 0ZM55.3229 20.5674H51.7377V9.0572H55.3229V20.5674ZM53.5303 7.48477C52.9433 7.48477 52.4506 7.28036 52.0522 6.87152C51.6539 6.46269 51.4547 5.97524 51.4547 5.40916C51.4547 4.82212 51.6539 4.32943 52.0522 3.93108C52.4506 3.53273 52.9433 3.33355 53.5303 3.33355C54.0964 3.33355 54.5838 3.53273 54.9927 3.93108C55.4015 4.32943 55.6059 4.82212 55.6059 5.40916C55.6059 5.97524 55.4015 6.46269 54.9927 6.87152C54.5838 7.28036 54.0964 7.48477 53.5303 7.48477ZM68.72 20.5674H65.1663V14.9695C65.1663 14.2986 65.0824 13.6225 64.9147 12.9411C64.747 12.2597 64.2019 11.919 63.2794 11.919C62.3569 11.919 61.7698 12.223 61.5183 12.831C61.2667 13.439 61.1409 14.1204 61.1409 14.8752V20.5674H57.5557V9.0572H60.9836V10.6296H61.0465C61.2771 10.1684 61.6807 9.74383 62.2573 9.35596C62.8339 8.9681 63.5624 8.77417 64.443 8.77417C66.246 8.77417 67.4096 9.2983 67.9338 10.3466C68.4579 11.3949 68.72 12.6948 68.72 14.2462V20.5674Z" fill="white"/>
</g>
<g clip-path="url(#clip2_12_12982)">
<path d="M108.381 5.88089C107.522 5.88089 106.715 6.03813 105.96 6.35262C105.205 6.68808 104.55 7.13359 103.994 7.68919C103.439 8.24478 102.993 8.89996 102.658 9.65473C102.343 10.4095 102.186 11.2167 102.186 12.0763C102.186 12.9359 102.343 13.743 102.658 14.4978C102.993 15.2526 103.439 15.9078 103.994 16.4634C104.55 17.0189 105.205 17.4645 105.96 17.7999C106.715 18.1144 107.522 18.2716 108.381 18.2716C109.241 18.2716 110.048 18.1144 110.803 17.7999C111.558 17.4645 112.213 17.0189 112.769 16.4634C113.324 15.9078 113.77 15.2526 114.105 14.4978C114.42 13.743 114.577 12.9359 114.577 12.0763C114.577 11.2167 114.42 10.4095 114.105 9.65473C113.77 8.89996 113.324 8.24478 112.769 7.68919C112.213 7.13359 111.558 6.68808 110.803 6.35262C110.048 6.03813 109.241 5.88089 108.381 5.88089ZM108.381 16.1017C107.27 16.1017 106.322 15.7086 105.535 14.9224C104.749 14.1362 104.356 13.1875 104.356 12.0763C104.356 10.9651 104.749 10.0164 105.535 9.23017C106.322 8.44395 107.27 8.05085 108.381 8.05085C109.493 8.05085 110.441 8.44395 111.228 9.23017C112.014 10.0164 112.407 10.9651 112.407 12.0763C112.407 13.1875 112.014 14.1362 111.228 14.9224C110.441 15.7086 109.493 16.1017 108.381 16.1017ZM116.275 5.6293C116.275 6.04862 116.134 6.39455 115.85 6.66711C115.567 6.93966 115.227 7.07594 114.828 7.07594C114.43 7.07594 114.089 6.93966 113.806 6.66711C113.523 6.39455 113.382 6.04862 113.382 5.6293C113.382 5.23095 113.523 4.8955 113.806 4.62295C114.089 4.35039 114.43 4.21411 114.828 4.21411C115.227 4.21411 115.567 4.35039 115.85 4.62295C116.134 4.8955 116.275 5.23095 116.275 5.6293ZM119.829 4.18267C119.514 3.365 119.048 2.64693 118.429 2.02844C117.811 1.40994 117.103 0.94346 116.306 0.628972C115.824 0.461245 115.337 0.330211 114.844 0.235865C114.351 0.141518 113.854 0.0943457 113.35 0.0943457C112.721 0.0524142 112.145 0.0262071 111.621 0.0157244C111.097 0.00524164 110.017 0 108.381 0C106.746 0 105.666 0.00524164 105.142 0.0157244C104.618 0.0262071 104.042 0.0524142 103.413 0.0943457C102.909 0.0943457 102.411 0.141518 101.919 0.235865C101.426 0.330211 100.949 0.461245 100.488 0.628972C99.6702 0.94346 98.9521 1.40994 98.3336 2.02844C97.7151 2.64693 97.2486 3.365 96.9341 4.18267C96.7664 4.64392 96.6354 5.12088 96.541 5.61358C96.4467 6.10628 96.389 6.60421 96.3681 7.10739C96.3471 7.75733 96.3314 8.33912 96.3209 8.85279C96.3104 9.36645 96.3052 10.4409 96.3052 12.0763C96.3052 13.7116 96.3104 14.7913 96.3209 15.3155C96.3314 15.8396 96.3471 16.4267 96.3681 17.0766C96.389 17.5798 96.4467 18.0725 96.541 18.5547C96.6354 19.0369 96.7664 19.5191 96.9341 20.0013C97.2486 20.819 97.7151 21.5318 98.3336 22.1398C98.9521 22.7478 99.6702 23.2091 100.488 23.5236C100.949 23.7123 101.426 23.859 101.919 23.9638C102.411 24.0687 102.909 24.1211 103.413 24.1211C104.063 24.163 104.644 24.1892 105.158 24.1997C105.672 24.2102 106.746 24.2154 108.381 24.2154C110.017 24.2154 111.097 24.2102 111.621 24.1997C112.145 24.1892 112.732 24.163 113.382 24.1211C113.864 24.1211 114.351 24.0739 114.844 23.9796C115.337 23.8852 115.824 23.7542 116.306 23.5865C117.124 23.272 117.837 22.8055 118.445 22.187C119.053 21.5685 119.514 20.8504 119.829 20.0328C120.017 19.5715 120.159 19.0946 120.253 18.6019C120.348 18.1092 120.395 17.6112 120.395 17.108C120.416 16.4581 120.432 15.8763 120.442 15.3627C120.452 14.849 120.458 13.7745 120.458 12.1392C120.458 10.4829 120.458 9.3979 120.458 8.88424C120.458 8.37057 120.437 7.78878 120.395 7.13884C120.395 6.63566 120.348 6.13248 120.253 5.6293C120.159 5.12612 120.017 4.64392 119.829 4.18267ZM118.193 16.9508C118.193 17.3492 118.157 17.737 118.083 18.1144C118.01 18.4918 117.91 18.8587 117.785 19.2151C117.575 19.7602 117.271 20.2319 116.873 20.6303C116.474 21.0286 116.013 21.3222 115.489 21.5109C115.132 21.6576 114.766 21.7624 114.388 21.8253C114.011 21.8882 113.633 21.9302 113.256 21.9511C112.606 21.9721 112.035 21.9878 111.542 21.9983C111.049 22.0088 109.985 22.014 108.35 22.014C106.715 22.014 105.651 22.0088 105.158 21.9983C104.665 21.9878 104.094 21.9721 103.444 21.9511C103.046 21.9511 102.663 21.9144 102.296 21.8411C101.929 21.7677 101.557 21.6576 101.18 21.5109C100.656 21.3222 100.194 21.0286 99.796 20.6303C99.3976 20.2319 99.0936 19.7602 98.884 19.2151C98.7582 18.8587 98.6586 18.4918 98.5852 18.1144C98.5118 17.737 98.4751 17.3596 98.4751 16.9823C98.4332 16.3533 98.4122 15.7872 98.4122 15.284C98.4122 14.7808 98.4122 13.7116 98.4122 12.0763C98.4122 10.4409 98.4122 9.37693 98.4122 8.88424C98.4122 8.39154 98.4332 7.82023 98.4751 7.17029C98.4751 6.7929 98.5118 6.41552 98.5852 6.03814C98.6586 5.66075 98.7582 5.28337 98.884 4.90598C99.0936 4.38184 99.3976 3.9206 99.796 3.52225C100.194 3.12389 100.656 2.81989 101.18 2.61024C101.557 2.48444 101.929 2.38485 102.296 2.31147C102.663 2.23809 103.046 2.2014 103.444 2.2014C104.073 2.18044 104.639 2.16471 105.142 2.15423C105.645 2.14375 106.715 2.13851 108.35 2.13851C109.985 2.13851 111.049 2.13851 111.542 2.13851C112.035 2.13851 112.606 2.15947 113.256 2.2014C113.633 2.2014 114.011 2.23809 114.388 2.31147C114.766 2.38485 115.132 2.48444 115.489 2.61024C116.013 2.81989 116.474 3.12389 116.873 3.52225C117.271 3.9206 117.575 4.38184 117.785 4.90598C117.91 5.28337 118.01 5.65551 118.083 6.02241C118.157 6.38931 118.193 6.77193 118.193 7.17029C118.214 7.79926 118.23 8.36533 118.241 8.86851C118.251 9.37169 118.256 10.4409 118.256 12.0763C118.256 13.7116 118.256 14.7756 118.256 15.2683C118.256 15.761 118.246 16.3218 118.225 16.9508H118.193Z" fill="white"/>
</g>
<defs>
<clipPath id="clip0_12_12982">
<rect width="24.1525" height="24.1525" fill="white"/>
</clipPath>
<clipPath id="clip1_12_12982">
<rect width="24.1525" height="24.1525" fill="white" transform="translate(48.1526)"/>
</clipPath>
<clipPath id="clip2_12_12982">
<rect width="24.1525" height="24.2154" fill="white" transform="translate(96.3052)"/>
</clipPath>
</defs>
</svg>
