<svg width="48" height="48" viewBox="0 0 48 48" fill="none" xmlns="http://www.w3.org/2000/svg">
<path d="M41.6212 18.4613C38.8762 18.54 36.6863 20.775 36.6619 23.52V29.76H32.0925C30.1425 29.7619 28.5619 31.3425 28.56 33.2925V46.0802C28.56 46.399 28.6856 46.7046 28.9106 46.9296C29.1356 47.1545 29.4413 47.2802 29.76 47.2802H34.5318C34.8487 47.2802 35.1544 47.1546 35.3793 46.9296C35.6043 46.7046 35.7318 46.3989 35.7318 46.0802V37.0951H41.8802C44.6045 37.0913 46.8112 34.8844 46.815 32.1602V23.5202C46.8094 22.1571 46.2563 20.8521 45.2794 19.8996C44.3025 18.9489 42.9844 18.4296 41.6213 18.4614L41.6212 18.4613ZM44.415 32.16C44.415 33.5607 43.2806 34.695 41.88 34.695H34.5264C33.8645 34.695 33.3264 35.2312 33.3264 35.895V44.8801H30.9601V33.2982C30.9583 32.9963 31.0783 32.7075 31.2901 32.4938C31.502 32.2801 31.7908 32.1601 32.0926 32.1601H37.8526C38.1714 32.1601 38.477 32.0344 38.702 31.8094C38.927 31.5844 39.0526 31.2788 39.0526 30.9601V23.5201C39.0526 22.4438 39.6977 21.4726 40.6895 21.0526C41.6814 20.6345 42.827 20.8501 43.5977 21.6001C44.117 22.1045 44.4077 22.7963 44.4058 23.5201L44.415 32.16ZM41.7356 6.89233C39.6825 6.89233 37.83 8.12982 37.0444 10.0273C36.2588 11.9248 36.6919 14.1092 38.145 15.5622C39.5981 17.0134 41.7825 17.4484 43.6799 16.6628C45.5774 15.8772 46.8149 14.0247 46.8149 11.9716C46.8111 9.16657 44.5386 6.89607 41.7355 6.89223L41.7356 6.89233ZM41.7356 14.6491C40.6519 14.6491 39.6768 13.9966 39.2606 12.9954C38.8463 11.996 39.0769 10.8429 39.8419 10.0779C40.6088 9.311 41.76 9.08228 42.7612 9.49667C43.7625 9.91104 44.415 10.8879 44.415 11.9716C44.4112 13.4491 43.215 14.6473 41.7356 14.6491V14.6491ZM23.7452 0.71953C21.6921 0.71953 19.8396 1.95702 19.054 3.85451C18.2684 5.75199 18.7033 7.93638 20.1546 9.38939C21.6077 10.8406 23.7921 11.2756 25.6895 10.49C27.5869 9.70441 28.8245 7.8519 28.8245 5.79692C28.8207 2.99382 26.5501 0.721402 23.7451 0.719482L23.7452 0.71953ZM23.7452 8.47633C22.6633 8.47633 21.6864 7.82382 21.2721 6.82259C20.8559 5.82135 21.0865 4.67007 21.8515 3.90323C22.6184 3.1382 23.7696 2.90948 24.7708 3.32387C25.7721 3.73824 26.4246 4.7151 26.4246 5.79697C26.4208 7.27633 25.2246 8.47446 23.7452 8.47633ZM12.2742 37.0944V46.0795C12.2742 46.3983 12.3998 46.7039 12.6248 46.9289C12.8498 47.1539 13.1554 47.2795 13.4742 47.2795H18.2404C18.5592 47.2795 18.8648 47.1539 19.0898 46.9289C19.3147 46.7039 19.4404 46.3983 19.4404 46.0795V33.2976C19.4404 31.3457 17.8598 29.7614 15.9079 29.7595H11.3385V23.5195C11.3141 20.7745 9.12414 18.5395 6.37916 18.4608C5.01606 18.4289 3.69793 18.9483 2.72103 19.8989C1.74414 20.8514 1.19103 22.1564 1.18542 23.5195V32.1595C1.18916 34.8839 3.39606 37.0906 6.1203 37.0944H12.2742ZM3.5852 32.1595V23.5195C3.5852 22.7995 3.87583 22.1095 4.39146 21.6051C4.9052 21.1008 5.60082 20.8251 6.32269 20.842C7.77392 20.8833 8.93082 22.0683 8.93831 23.5195V30.9653C8.93831 31.2822 9.06393 31.5878 9.28893 31.8128C9.51393 32.0378 9.81957 32.1653 10.1383 32.1653H15.8983C16.1983 32.1653 16.4871 32.2834 16.6989 32.4972C16.9108 32.709 17.0308 32.9959 17.0308 33.2978V44.8797H14.6739V35.8946C14.6739 35.5759 14.5464 35.2702 14.3214 35.0452C14.0964 34.8203 13.7926 34.6946 13.4739 34.6946H6.12033C4.71969 34.6946 3.58535 33.5602 3.58535 32.1596L3.5852 32.1595ZM6.26269 17.0491H6.26457C8.31767 17.0491 10.1702 15.8116 10.9558 13.9142C11.7414 12.0167 11.3083 9.83228 9.85516 8.37928C8.40206 6.92804 6.21767 6.49302 4.32028 7.27864C2.42279 8.06612 1.1853 9.91676 1.1853 11.9717C1.18905 14.7748 3.46156 17.0473 6.26466 17.0492L6.26269 17.0491ZM6.26269 9.29233H6.26457C7.34831 9.29233 8.32333 9.94484 8.73954 10.9461C9.15392 11.9473 8.92329 13.0986 8.15831 13.8654C7.39142 14.6305 6.24018 14.8592 5.23895 14.4448C4.23772 14.0304 3.58521 13.0536 3.58521 11.9717C3.58896 10.4923 4.78521 9.29608 6.26457 9.29233H6.26269ZM29.3421 21.2021V18.1009C29.3421 17.1952 28.9802 16.3271 28.337 15.6878C27.6958 15.0503 26.8258 14.694 25.9201 14.6978H21.557C19.6783 14.6996 18.1558 16.2221 18.1539 18.1009V21.2021C18.1539 21.864 17.6158 22.4021 16.9539 22.4021C16.2902 22.4021 15.7539 21.864 15.7539 21.2021V18.1009C15.7596 14.8983 18.3546 12.3034 21.5571 12.2977H25.9202C27.4615 12.2939 28.9409 12.9051 30.034 13.9926C31.1252 15.082 31.7402 16.5595 31.7421 18.1008V21.202C31.7421 21.8639 31.2058 22.402 30.5421 22.402C29.8802 22.402 29.3421 21.8639 29.3421 21.202L29.3421 21.2021ZM32.7546 27.1008H24.9603V46.0795C24.9603 46.7414 24.4222 47.2795 23.7603 47.2795C23.0985 47.2795 22.5603 46.7414 22.5603 46.0795V27.1008H14.7416C14.0779 27.1008 13.5416 26.5627 13.5416 25.9008C13.5416 25.2371 14.0779 24.7008 14.7416 24.7008H32.7546C33.4183 24.7008 33.9546 25.2371 33.9546 25.9008C33.9546 26.5627 33.4183 27.1008 32.7546 27.1008Z" fill="#1C01CB"/>
</svg>
