<svg width="48" height="48" viewBox="0 0 48 48" fill="none" xmlns="http://www.w3.org/2000/svg">
<path d="M38.831 32.4489C38.1598 32.4001 37.5354 32.6401 37.0066 32.9289C36.431 31.7289 35.231 30.9133 33.8378 30.9133C33.1666 30.9133 32.5422 31.1045 32.0135 31.3933C31.8691 31.0576 31.6291 30.722 31.3422 30.4333C30.671 29.762 29.8066 29.3777 28.8466 29.3777C28.3179 29.3289 27.8378 29.4733 27.4066 29.6664L27.4554 22.4174C27.4554 21.4574 27.1197 20.5931 26.4466 19.9218C25.7754 19.2506 24.911 18.8662 23.951 18.8662C22.031 18.915 20.4466 20.4506 20.3998 22.3706L20.3041 38.9306L18.3354 36.9618C17.1354 35.7618 15.2641 35.5706 13.8241 36.5306C13.0085 37.1062 12.4329 37.9706 12.2885 38.9793C12.1441 39.9881 12.4329 40.995 13.0573 41.7637L16.8485 46.275C17.2329 46.7062 17.8573 46.755 18.2885 46.4193C18.7198 46.035 18.7685 45.4106 18.4329 44.9793L14.6885 40.4681C14.3998 40.1325 14.3041 39.7481 14.3529 39.3169C14.4016 38.8856 14.6416 38.5481 14.9773 38.3081C15.5529 37.9237 16.3685 37.9725 16.8485 38.4994L19.5841 41.235C20.0641 41.715 20.7353 41.8594 21.3597 41.5706C21.9841 41.3306 22.3685 40.755 22.3685 40.0818L22.4641 22.4663C22.4641 21.6507 23.1353 21.0263 23.9041 21.0263C24.2885 21.0263 24.6729 21.1707 24.9129 21.4576C25.151 21.7444 25.4398 22.0801 25.4398 22.4645L25.391 32.9289V32.9777V34.6089C25.391 35.1845 25.871 35.6645 26.3998 35.6645C26.9754 35.6645 27.4086 35.1845 27.4554 34.6558V32.9758C27.4554 32.5914 27.5998 32.2558 27.8867 31.967C28.1754 31.6782 28.5111 31.5357 28.8954 31.5357C29.2798 31.5357 29.6642 31.6801 29.9042 31.967C30.193 32.2557 30.3355 32.5914 30.3355 32.9758V36.1445C30.3355 36.7201 30.8155 37.2001 31.3442 37.2001C31.9198 37.2001 32.353 36.7201 32.3998 36.1914V34.5601C32.3998 33.7445 33.0711 33.1201 33.8398 33.1201C34.6555 33.1201 35.2798 33.7914 35.2798 34.5601V36.0001V36.0489V37.6801C35.2798 38.2557 35.7598 38.7357 36.2886 38.7357C36.8642 38.7357 37.2974 38.2557 37.3442 37.727V36.1914V36.0957C37.3442 35.2801 38.0155 34.6557 38.7842 34.6557C39.5998 34.6557 40.2242 35.327 40.2242 36.0957L40.1755 45.8868C40.1755 46.4624 40.6555 46.9424 41.1842 46.9424C41.7599 46.9424 42.193 46.4624 42.2399 45.9336L42.3355 36C42.3842 34.08 40.7999 32.4488 38.8311 32.4488L38.831 32.4489Z" fill="#1C01CB"/>
<path d="M14.8311 23.3757C15.4067 23.3757 15.8867 22.8957 15.8867 22.3201C15.8867 21.7445 15.4067 21.2645 14.8311 21.2645H9.50402C9.07277 19.8733 7.77525 18.8645 6.28841 18.8645C4.41717 18.8645 2.87964 20.4001 2.87964 22.2733C2.87964 24.1445 4.41525 25.682 6.28841 25.682C7.82402 25.682 9.07279 24.6733 9.50402 23.282L14.8311 23.2802V23.3757ZM6.2885 23.6645C5.5685 23.6645 4.94412 23.0401 4.94412 22.3201C4.94412 21.6001 5.5685 20.9757 6.2885 20.9757C7.0085 20.9757 7.63289 21.6001 7.63289 22.3201C7.63101 23.0889 7.0085 23.6645 6.2885 23.6645Z" fill="#1C01CB"/>
<path d="M41.7111 18.9112C40.1754 18.9112 38.9267 19.9199 38.4954 21.3112H33.1684C32.5928 21.3112 32.1128 21.7912 32.1128 22.3668C32.1128 22.9424 32.5928 23.4224 33.1684 23.4224H38.4974C38.9286 24.8136 40.2261 25.8224 41.713 25.8224C43.5842 25.8224 45.1217 24.2868 45.1217 22.4136C45.1199 20.5443 43.5843 18.9111 41.7111 18.9111L41.7111 18.9112ZM41.7111 23.6643C40.9911 23.6643 40.3667 23.0399 40.3667 22.3199C40.3667 21.5999 40.9911 20.9755 41.7111 20.9755C42.4311 20.9755 43.0554 21.5999 43.0554 22.3199C43.0554 23.0887 42.4798 23.6643 41.7111 23.6643Z" fill="#1C01CB"/>
<path d="M22.9446 7.82458V13.1535C22.9446 13.7292 23.4246 14.2092 24.0002 14.2092C24.5758 14.2092 25.0558 13.7292 25.0558 13.1535V7.82458C26.4471 7.39333 27.4558 6.09581 27.4558 4.60896C27.4558 2.73773 25.9202 1.2002 24.0471 1.2002C22.1758 1.2002 20.6383 2.73581 20.6383 4.60896C20.5914 6.14458 21.6002 7.39148 22.9445 7.82458H22.9446ZM24.0002 3.26458C24.7202 3.26458 25.3446 3.88896 25.3446 4.60896C25.3446 5.32896 24.7202 5.95335 24.0002 5.95335C23.2802 5.95335 22.6558 5.32896 22.6558 4.60896C22.6558 3.88896 23.2802 3.26458 24.0002 3.26458Z" fill="#1C01CB"/>
<path d="M11.471 13.1999C12.0466 13.1999 12.5754 13.0555 13.0066 12.8155L16.7978 16.6068C16.9891 16.798 17.2778 16.8955 17.5178 16.8955C17.8066 16.8955 18.0466 16.7999 18.2378 16.6068C18.6222 16.2224 18.6222 15.5512 18.2378 15.1668L14.4466 11.3755C14.6866 10.8955 14.831 10.3668 14.831 9.83992C14.831 7.96869 13.2953 6.43115 11.4222 6.43115C9.55096 6.43115 8.01343 7.96677 8.01343 9.83992C8.0153 11.7112 9.59968 13.1999 11.4709 13.1999L11.471 13.1999ZM11.471 8.44868C12.191 8.44868 12.8154 9.07306 12.8154 9.79306C12.8154 10.5131 12.191 11.1374 11.471 11.1374C10.751 11.1374 10.1266 10.5131 10.1266 9.79306C10.1285 9.07119 10.751 8.44868 11.471 8.44868Z" fill="#1C01CB"/>
<path d="M30.48 16.8957C30.7688 16.8957 31.0088 16.8001 31.2 16.607L34.9912 12.8157C35.4712 13.0557 36 13.2001 36.5269 13.2001C38.3981 13.2001 39.9356 11.6645 39.9356 9.79134C39.9356 7.9201 38.4 6.38257 36.5269 6.38257C34.6556 6.38257 33.1181 7.91818 33.1181 9.79134C33.1181 10.367 33.2625 10.8957 33.5025 11.327L29.76 15.1201C29.3756 15.5044 29.3756 16.1757 29.76 16.5601C29.9512 16.8001 30.1912 16.8957 30.48 16.8957L30.48 16.8957ZM36.529 8.44867C37.249 8.44867 37.8734 9.07305 37.8734 9.79305C37.8734 10.5131 37.249 11.1374 36.529 11.1374C35.809 11.1374 35.1846 10.5131 35.1846 9.79305C35.1846 9.07118 35.809 8.44867 36.529 8.44867Z" fill="#1C01CB"/>
</svg>
