<svg width="67" height="67" viewBox="0 0 67 67" fill="none" xmlns="http://www.w3.org/2000/svg">
<path d="M52.3933 27.2684C53.8668 24.5884 56.5468 21.7069 61.1033 18.9617C62.3752 18.2237 63.1814 16.8837 63.1814 15.4783C63.1814 12.5967 60.2344 10.5867 57.5544 11.7933C49.7811 15.2087 36.8501 23.7173 36.8501 41.3389C36.8501 49.2456 43.2151 55.6106 51.1218 55.6106C59.0284 55.6106 65.3251 49.2456 65.3251 41.4073C65.3251 33.9689 59.6301 27.9389 52.3934 27.2689L52.3933 27.2684Z" fill="#77FAC6"/>
<path d="M17.1533 27.2694C18.6267 24.5894 21.3067 21.7078 25.8633 18.9627C27.1352 18.2246 27.9413 16.8846 27.9413 15.4792C27.9413 12.5977 24.9944 10.5877 22.3144 11.7942C14.6067 15.2097 1.67505 23.7182 1.67505 41.3399C1.67505 49.2466 8.04005 55.6116 15.8784 55.6116C23.7167 55.6116 30.15 49.2466 30.15 41.3399C30.15 33.9699 24.455 27.9399 17.1534 27.2699L17.1533 27.2694Z" fill="#77FAC6"/>
</svg>
