<svg width="79" height="79" viewBox="0 0 79 79" fill="none" xmlns="http://www.w3.org/2000/svg">
<rect width="79" height="79" fill="#1C01CB"/>
<g clip-path="url(#clip0_11_337)">
<path d="M39.4411 20L22 29.9415V50.0585L39.4411 60L57 49.9415V48.0702L53.1111 45.731L49.5758 47.8363L51.697 49.0058L39.4411 56.0234L25.5354 47.9532V32.0468L39.4411 23.9766L51.697 30.9942L39.4411 38.0117L35.0808 35.4386V39.5322L39.4411 41.9883L49.3401 36.3743L50.8721 35.5556L57 31.9298V30.0585L39.4411 20Z" fill="white"/>
<path d="M49.5758 38.8303L51.5791 39.9999L39.4411 46.9005L35.0808 44.5613V48.5379L39.3232 50.9941L49.5758 45.1461L50.7542 44.4444L57 40.9356V39.0643L53.1111 36.842L49.5758 38.8303Z" fill="white"/>
<circle cx="39.5" cy="30.3571" r="2.5" fill="#77FAC6"/>
</g>
<defs>
<clipPath id="clip0_11_337">
<rect width="35" height="40" fill="white" transform="translate(22 20)"/>
</clipPath>
</defs>
</svg>
