<svg width="79" height="79" viewBox="0 0 79 79" fill="none" xmlns="http://www.w3.org/2000/svg">
<rect width="79" height="79" fill="#1C01CB"/>
<path d="M47 37.0834C48.6576 37.0834 50.2473 36.4249 51.4193 35.2528C52.5915 34.0806 53.2499 32.4909 53.2499 30.8334C53.2499 29.1759 52.5915 27.5862 51.4193 26.4141C50.2472 25.242 48.6575 24.5835 47 24.5835C45.3425 24.5835 43.7527 25.242 42.5807 26.4141C41.4085 27.5862 40.7501 29.1759 40.7501 30.8334C40.7501 30.9101 40.7701 30.9817 40.7734 31.0567L34.38 34.5467C33.2897 33.3992 31.8803 32.6049 30.334 32.2665C28.7877 31.9281 27.1753 32.0609 25.7054 32.648C24.2353 33.2351 22.9749 34.2495 22.087 35.56C21.1991 36.8705 20.7247 38.4172 20.7247 40C20.7247 41.5828 21.1991 43.1296 22.087 44.44C22.9748 45.7505 24.2352 46.7649 25.7054 47.352C27.1754 47.9391 28.7878 48.0719 30.334 47.7335C31.8804 47.3951 33.2898 46.6008 34.38 45.4533L40.7734 48.9433C40.7734 49.0183 40.7501 49.0899 40.7501 49.1666C40.732 50.7214 41.2874 52.2283 42.3104 53.3996C43.3332 54.5707 44.7516 55.3239 46.2947 55.5153C47.8378 55.7067 49.3973 55.3228 50.675 54.4369C51.953 53.5511 52.8598 52.2256 53.222 50.7136C53.5844 49.2015 53.3768 47.6089 52.6391 46.2399C51.9015 44.8712 50.6852 43.8222 49.2231 43.2934C47.7609 42.7648 46.155 42.7933 44.7124 43.3738C43.2699 43.9543 42.0919 45.0458 41.4033 46.4399L35.7967 43.3782L35.7965 43.3783C36.3141 42.3273 36.5834 41.1714 36.5834 40C36.5834 38.8285 36.3141 37.6726 35.7965 36.6216L41.4032 33.5599L41.4033 33.56C41.9121 34.6129 42.7066 35.5016 43.6962 36.1246C44.6858 36.7476 45.8305 37.0798 46.9999 37.0834L47 37.0834ZM47 45.4167C47.9945 45.4167 48.9484 45.8118 49.6517 46.515C50.355 47.2183 50.75 48.1722 50.75 49.1667C50.75 50.1612 50.3549 51.1151 49.6517 51.8184C48.9484 52.5217 47.9945 52.9167 47 52.9167C46.0055 52.9167 45.0516 52.5216 44.3483 51.8184C43.645 51.1151 43.25 50.1612 43.25 49.1667C43.2513 48.1726 43.6469 47.2194 44.3499 46.5166C45.0527 45.8136 46.0059 45.418 47 45.4167ZM28.6667 45.4167C27.2301 45.4167 25.8523 44.846 24.8363 43.8302C23.8206 42.8143 23.2499 41.4366 23.2499 39.9999C23.2499 38.5632 23.8206 37.1856 24.8363 36.1696C25.8522 35.1538 27.23 34.5831 28.6667 34.5831C30.1034 34.5831 31.481 35.1538 32.497 36.1696C33.5128 37.1855 34.0835 38.5632 34.0835 39.9999C34.0816 41.436 33.5104 42.8127 32.4951 43.8282C31.4796 44.8436 30.1029 45.4148 28.6667 45.4166L28.6667 45.4167ZM47 27.0834C47.9945 27.0834 48.9484 27.4784 49.6517 28.1817C50.355 28.8849 50.75 29.8388 50.75 30.8334C50.75 31.8279 50.3549 32.7818 49.6517 33.4851C48.9484 34.1883 47.9945 34.5834 47 34.5834C46.0055 34.5834 45.0516 34.1883 44.3483 33.4851C43.645 32.7818 43.25 31.8279 43.25 30.8334C43.2513 29.8392 43.6469 28.8861 44.3499 28.1832C45.0527 27.4802 46.0059 27.0847 47 27.0834V27.0834Z" fill="white"/>
</svg>
