<svg width="79" height="79" viewBox="0 0 79 79" fill="none" xmlns="http://www.w3.org/2000/svg">
<rect width="79" height="79" fill="#1C01CB"/>
<path d="M38.2 28C36.0462 28.001 33.948 28.6837 32.206 29.9503C30.4641 31.2169 29.1677 33.0023 28.5027 35.0509C27.8378 37.0995 27.8383 39.3059 28.5044 41.3543C29.1704 43.4026 30.4676 45.1873 32.2104 46.4529C33.9529 47.7186 36.0514 48.4002 38.2054 48.4001C40.3591 48.3999 42.4577 47.718 44.2 46.452L49.28 51.532V51.5322C49.6845 51.9366 50.2739 52.0945 50.8264 51.9465C51.3789 51.7984 51.8104 51.3669 51.9584 50.8145C52.1065 50.262 51.9485 49.6725 51.5441 49.2681L46.4641 44.1881C47.9477 42.1488 48.6226 39.6318 48.3582 37.1238C48.0939 34.6157 46.909 32.2948 45.0327 30.6094C43.1564 28.9243 40.722 27.9945 38.2 28.0001L38.2 28ZM38.2 45.2C36.3435 45.2 34.563 44.4625 33.2503 43.1497C31.9376 41.837 31.2001 40.0565 31.2001 38.2001C31.2001 36.3436 31.9376 34.5631 33.2503 33.2504C34.5631 31.9376 36.3436 31.2001 38.2 31.2001C40.0564 31.2001 41.837 31.9376 43.1497 33.2504C44.4624 34.5632 45.1999 36.3436 45.1999 38.2001C45.1979 40.0559 44.4597 41.8351 43.1473 43.1474C41.8351 44.4598 40.0558 45.1979 38.2 45.2V45.2Z" fill="white"/>
</svg>
