<svg width="79" height="79" viewBox="0 0 79 79" fill="none" xmlns="http://www.w3.org/2000/svg">
<rect width="79" height="79" fill="#1C01CB"/>
<path d="M26.5026 58.2756H49.0019V54.5537H26.5026C25.8265 54.5609 25.1819 54.2726 24.7385 53.7637C24.2926 53.2573 24.0915 52.5788 24.1884 51.91L26.6697 34.7033H32.2527V39.666H35.9747V34.7033H42.178V39.666H45.8999V34.7033H51.4829L53.6104 49.5912H57.3687L55.1685 34.1748C54.9044 32.3429 53.3342 30.9811 51.4829 30.9811H45.8999V26.6388C45.8999 22.8708 42.8443 19.8152 39.0763 19.8152C35.3083 19.8152 32.2527 22.8708 32.2527 26.6388V30.9811H26.6697C24.8184 30.9811 23.2482 32.3429 22.9841 34.1748L20.5028 51.3815V51.3839C20.2556 53.1213 20.7742 54.8781 21.9252 56.2011C23.0786 57.5266 24.7482 58.2826 26.5025 58.2754L26.5026 58.2756ZM35.975 26.6389C35.975 24.9257 37.3635 23.5372 39.0766 23.5372C40.7898 23.5372 42.1783 24.9257 42.1783 26.6389V30.9812H35.975V26.6389Z" fill="white"/>
<path d="M55.286 53.1569C54.0879 53.1538 53.0295 53.9394 52.6806 55.0859C52.3348 56.2355 52.7807 57.4729 53.7786 58.1372C54.7765 58.8015 56.0929 58.7317 57.0149 57.9674C57.94 57.203 58.2525 55.9231 57.7853 54.819C57.3607 53.812 56.378 53.1599 55.286 53.1569L55.286 53.1569Z" fill="#77FAC6"/>
</svg>
