<svg width="66" height="148" viewBox="0 0 66 148" fill="none" xmlns="http://www.w3.org/2000/svg">
<path d="M3.42835 6.8567C5.32352 6.8567 6.8567 5.32352 6.8567 3.42835C6.8567 1.51188 5.32352 0 3.42835 0C1.51188 0 0 1.51188 0 3.42835C0 5.32352 1.51188 6.8567 3.42835 6.8567Z" fill="#77FAC6"/>
<path d="M19.111 6.8567C21.0061 6.8567 22.5393 5.32352 22.5393 3.42835C22.5393 1.51188 21.0061 0 19.111 0C17.1945 0 15.6826 1.51188 15.6826 3.42835C15.6826 5.32352 17.1945 6.8567 19.111 6.8567Z" fill="#77FAC6"/>
<path d="M34.7936 6.8567C36.6888 6.8567 38.2219 5.32352 38.2219 3.42835C38.2219 1.51188 36.6888 0 34.7936 0C32.8771 0 31.3652 1.51188 31.3652 3.42835C31.3652 5.32352 32.8771 6.8567 34.7936 6.8567Z" fill="#77FAC6"/>
<path d="M50.4762 6.8567C52.3714 6.8567 53.9045 5.32352 53.9045 3.42835C53.9045 1.51188 52.3714 0 50.4762 0C48.5597 0 47.0479 1.51188 47.0479 3.42835C47.0479 5.32352 48.5597 6.8567 50.4762 6.8567Z" fill="#77FAC6"/>
<path d="M66.1588 6.8567C68.054 6.8567 69.5872 5.32352 69.5872 3.42835C69.5872 1.51188 68.054 0 66.1588 0C64.2423 0 62.7305 1.51188 62.7305 3.42835C62.7305 5.32352 64.2423 6.8567 66.1588 6.8567Z" fill="#77FAC6"/>
<path d="M3.42835 22.5392C5.32352 22.5392 6.8567 21.006 6.8567 19.1109C6.8567 17.1944 5.32352 15.6825 3.42835 15.6825C1.51188 15.6825 0 17.1944 0 19.1109C0 21.006 1.51188 22.5392 3.42835 22.5392Z" fill="#77FAC6"/>
<path d="M19.111 22.5392C21.0061 22.5392 22.5393 21.006 22.5393 19.1109C22.5393 17.1944 21.0061 15.6825 19.111 15.6825C17.1945 15.6825 15.6826 17.1944 15.6826 19.1109C15.6826 21.006 17.1945 22.5392 19.111 22.5392Z" fill="#77FAC6"/>
<path d="M34.7936 22.5392C36.6888 22.5392 38.2219 21.006 38.2219 19.1109C38.2219 17.1944 36.6888 15.6825 34.7936 15.6825C32.8771 15.6825 31.3652 17.1944 31.3652 19.1109C31.3652 21.006 32.8771 22.5392 34.7936 22.5392Z" fill="#77FAC6"/>
<path d="M50.4762 22.5392C52.3714 22.5392 53.9045 21.006 53.9045 19.1109C53.9045 17.1944 52.3714 15.6825 50.4762 15.6825C48.5597 15.6825 47.0479 17.1944 47.0479 19.1109C47.0479 21.006 48.5597 22.5392 50.4762 22.5392Z" fill="#77FAC6"/>
<path d="M66.1588 22.5392C68.054 22.5392 69.5872 21.006 69.5872 19.1109C69.5872 17.1944 68.054 15.6825 66.1588 15.6825C64.2423 15.6825 62.7305 17.1944 62.7305 19.1109C62.7305 21.006 64.2423 22.5392 66.1588 22.5392Z" fill="#77FAC6"/>
<path d="M3.42835 38.2219C5.32352 38.2219 6.8567 36.6887 6.8567 34.7935C6.8567 32.8771 5.32352 31.3652 3.42835 31.3652C1.51188 31.3652 0 32.8771 0 34.7935C0 36.6887 1.51188 38.2219 3.42835 38.2219Z" fill="#77FAC6"/>
<path d="M19.111 38.2219C21.0061 38.2219 22.5393 36.6887 22.5393 34.7935C22.5393 32.8771 21.0061 31.3652 19.111 31.3652C17.1945 31.3652 15.6826 32.8771 15.6826 34.7935C15.6826 36.6887 17.1945 38.2219 19.111 38.2219Z" fill="#77FAC6"/>
<path d="M34.7936 38.2219C36.6888 38.2219 38.2219 36.6887 38.2219 34.7935C38.2219 32.8771 36.6888 31.3652 34.7936 31.3652C32.8771 31.3652 31.3652 32.8771 31.3652 34.7935C31.3652 36.6887 32.8771 38.2219 34.7936 38.2219Z" fill="#77FAC6"/>
<path d="M50.4762 38.2219C52.3714 38.2219 53.9045 36.6887 53.9045 34.7935C53.9045 32.8771 52.3714 31.3652 50.4762 31.3652C48.5597 31.3652 47.0479 32.8771 47.0479 34.7935C47.0479 36.6887 48.5597 38.2219 50.4762 38.2219Z" fill="#77FAC6"/>
<path d="M66.1588 38.2219C68.054 38.2219 69.5872 36.6887 69.5872 34.7935C69.5872 32.8771 68.054 31.3652 66.1588 31.3652C64.2423 31.3652 62.7305 32.8771 62.7305 34.7935C62.7305 36.6887 64.2423 38.2219 66.1588 38.2219Z" fill="#77FAC6"/>
<path d="M3.42835 53.9045C5.32352 53.9045 6.8567 52.3713 6.8567 50.4761C6.8567 48.5596 5.32352 47.0478 3.42835 47.0478C1.51188 47.0478 0 48.5596 0 50.4761C0 52.3713 1.51188 53.9045 3.42835 53.9045Z" fill="#77FAC6"/>
<path d="M19.111 53.9045C21.0061 53.9045 22.5393 52.3713 22.5393 50.4761C22.5393 48.5596 21.0061 47.0478 19.111 47.0478C17.1945 47.0478 15.6826 48.5596 15.6826 50.4761C15.6826 52.3713 17.1945 53.9045 19.111 53.9045Z" fill="#77FAC6"/>
<path d="M34.7936 53.9045C36.6888 53.9045 38.2219 52.3713 38.2219 50.4761C38.2219 48.5596 36.6888 47.0478 34.7936 47.0478C32.8771 47.0478 31.3652 48.5596 31.3652 50.4761C31.3652 52.3713 32.8771 53.9045 34.7936 53.9045Z" fill="#77FAC6"/>
<path d="M50.4762 53.9045C52.3714 53.9045 53.9045 52.3713 53.9045 50.4761C53.9045 48.5596 52.3714 47.0478 50.4762 47.0478C48.5597 47.0478 47.0479 48.5596 47.0479 50.4761C47.0479 52.3713 48.5597 53.9045 50.4762 53.9045Z" fill="#77FAC6"/>
<path d="M66.1588 53.9045C68.054 53.9045 69.5872 52.3713 69.5872 50.4761C69.5872 48.5596 68.054 47.0478 66.1588 47.0478C64.2423 47.0478 62.7305 48.5596 62.7305 50.4761C62.7305 52.3713 64.2423 53.9045 66.1588 53.9045Z" fill="#77FAC6"/>
<path d="M3.42835 69.587C5.32352 69.587 6.8567 68.0539 6.8567 66.1587C6.8567 64.2422 5.32352 62.7303 3.42835 62.7303C1.51188 62.7303 0 64.2422 0 66.1587C0 68.0539 1.51188 69.587 3.42835 69.587Z" fill="#77FAC6"/>
<path d="M19.111 69.5871C21.0061 69.5871 22.5393 68.0539 22.5393 66.1588C22.5393 64.2423 21.0061 62.7304 19.111 62.7304C17.1945 62.7304 15.6826 64.2423 15.6826 66.1588C15.6826 68.0539 17.1945 69.5871 19.111 69.5871Z" fill="#77FAC6"/>
<path d="M34.7936 69.5871C36.6888 69.5871 38.2219 68.0539 38.2219 66.1588C38.2219 64.2423 36.6888 62.7304 34.7936 62.7304C32.8771 62.7304 31.3652 64.2423 31.3652 66.1588C31.3652 68.0539 32.8771 69.5871 34.7936 69.5871Z" fill="#77FAC6"/>
<path d="M50.4762 69.5871C52.3714 69.5871 53.9045 68.0539 53.9045 66.1588C53.9045 64.2423 52.3714 62.7304 50.4762 62.7304C48.5597 62.7304 47.0479 64.2423 47.0479 66.1588C47.0479 68.0539 48.5597 69.5871 50.4762 69.5871Z" fill="#77FAC6"/>
<path d="M66.1588 69.5871C68.054 69.5871 69.5872 68.0539 69.5872 66.1588C69.5872 64.2423 68.054 62.7304 66.1588 62.7304C64.2423 62.7304 62.7305 64.2423 62.7305 66.1588C62.7305 68.0539 64.2423 69.5871 66.1588 69.5871Z" fill="#77FAC6"/>
<path d="M3.42835 85.2697C5.32352 85.2697 6.8567 83.7365 6.8567 81.8414C6.8567 79.9249 5.32352 78.413 3.42835 78.413C1.51188 78.413 0 79.9249 0 81.8414C0 83.7365 1.51188 85.2697 3.42835 85.2697Z" fill="#77FAC6"/>
<path d="M19.111 85.2697C21.0061 85.2697 22.5393 83.7365 22.5393 81.8413C22.5393 79.9249 21.0061 78.413 19.111 78.413C17.1945 78.413 15.6826 79.9249 15.6826 81.8413C15.6826 83.7365 17.1945 85.2697 19.111 85.2697Z" fill="#77FAC6"/>
<path d="M34.7936 85.2697C36.6888 85.2697 38.2219 83.7365 38.2219 81.8413C38.2219 79.9249 36.6888 78.413 34.7936 78.413C32.8771 78.413 31.3652 79.9249 31.3652 81.8413C31.3652 83.7365 32.8771 85.2697 34.7936 85.2697Z" fill="#77FAC6"/>
<path d="M50.4762 85.2697C52.3714 85.2697 53.9045 83.7365 53.9045 81.8413C53.9045 79.9249 52.3714 78.413 50.4762 78.413C48.5597 78.413 47.0479 79.9249 47.0479 81.8413C47.0479 83.7365 48.5597 85.2697 50.4762 85.2697Z" fill="#77FAC6"/>
<path d="M66.1588 85.2697C68.054 85.2697 69.5872 83.7365 69.5872 81.8413C69.5872 79.9249 68.054 78.413 66.1588 78.413C64.2423 78.413 62.7305 79.9249 62.7305 81.8413C62.7305 83.7365 64.2423 85.2697 66.1588 85.2697Z" fill="#77FAC6"/>
<path d="M3.42835 100.952C5.32352 100.952 6.8567 99.4191 6.8567 97.5239C6.8567 95.6074 5.32352 94.0956 3.42835 94.0956C1.51188 94.0956 0 95.6074 0 97.5239C0 99.4191 1.51188 100.952 3.42835 100.952Z" fill="#77FAC6"/>
<path d="M19.111 100.952C21.0061 100.952 22.5393 99.4191 22.5393 97.5239C22.5393 95.6074 21.0061 94.0956 19.111 94.0956C17.1945 94.0956 15.6826 95.6074 15.6826 97.5239C15.6826 99.4191 17.1945 100.952 19.111 100.952Z" fill="#77FAC6"/>
<path d="M34.7936 100.952C36.6888 100.952 38.2219 99.4191 38.2219 97.5239C38.2219 95.6074 36.6888 94.0956 34.7936 94.0956C32.8771 94.0956 31.3652 95.6074 31.3652 97.5239C31.3652 99.4191 32.8771 100.952 34.7936 100.952Z" fill="#77FAC6"/>
<path d="M50.4762 100.952C52.3714 100.952 53.9045 99.4191 53.9045 97.5239C53.9045 95.6074 52.3714 94.0956 50.4762 94.0956C48.5597 94.0956 47.0479 95.6074 47.0479 97.5239C47.0479 99.4191 48.5597 100.952 50.4762 100.952Z" fill="#77FAC6"/>
<path d="M66.1588 100.952C68.054 100.952 69.5872 99.4191 69.5872 97.5239C69.5872 95.6074 68.054 94.0956 66.1588 94.0956C64.2423 94.0956 62.7305 95.6074 62.7305 97.5239C62.7305 99.4191 64.2423 100.952 66.1588 100.952Z" fill="#77FAC6"/>
<path d="M3.42835 116.635C5.32352 116.635 6.8567 115.102 6.8567 113.206C6.8567 111.29 5.32352 109.778 3.42835 109.778C1.51188 109.778 0 111.29 0 113.206C0 115.102 1.51188 116.635 3.42835 116.635Z" fill="#77FAC6"/>
<path d="M19.111 116.635C21.0061 116.635 22.5393 115.102 22.5393 113.206C22.5393 111.29 21.0061 109.778 19.111 109.778C17.1945 109.778 15.6826 111.29 15.6826 113.206C15.6826 115.102 17.1945 116.635 19.111 116.635Z" fill="#77FAC6"/>
<path d="M34.7936 116.635C36.6888 116.635 38.2219 115.102 38.2219 113.206C38.2219 111.29 36.6888 109.778 34.7936 109.778C32.8771 109.778 31.3652 111.29 31.3652 113.206C31.3652 115.102 32.8771 116.635 34.7936 116.635Z" fill="#77FAC6"/>
<path d="M50.4762 116.635C52.3714 116.635 53.9045 115.102 53.9045 113.206C53.9045 111.29 52.3714 109.778 50.4762 109.778C48.5597 109.778 47.0479 111.29 47.0479 113.206C47.0479 115.102 48.5597 116.635 50.4762 116.635Z" fill="#77FAC6"/>
<path d="M66.1588 116.635C68.054 116.635 69.5872 115.102 69.5872 113.206C69.5872 111.29 68.054 109.778 66.1588 109.778C64.2423 109.778 62.7305 111.29 62.7305 113.206C62.7305 115.102 64.2423 116.635 66.1588 116.635Z" fill="#77FAC6"/>
<path d="M3.42835 132.317C5.32352 132.317 6.8567 130.784 6.8567 128.889C6.8567 126.973 5.32352 125.461 3.42835 125.461C1.51188 125.461 0 126.973 0 128.889C0 130.784 1.51188 132.317 3.42835 132.317Z" fill="#77FAC6"/>
<path d="M19.111 132.317C21.0061 132.317 22.5393 130.784 22.5393 128.889C22.5393 126.973 21.0061 125.461 19.111 125.461C17.1945 125.461 15.6826 126.973 15.6826 128.889C15.6826 130.784 17.1945 132.317 19.111 132.317Z" fill="#77FAC6"/>
<path d="M34.7936 132.317C36.6888 132.317 38.2219 130.784 38.2219 128.889C38.2219 126.973 36.6888 125.461 34.7936 125.461C32.8771 125.461 31.3652 126.973 31.3652 128.889C31.3652 130.784 32.8771 132.317 34.7936 132.317Z" fill="#77FAC6"/>
<path d="M50.4762 132.317C52.3714 132.317 53.9045 130.784 53.9045 128.889C53.9045 126.973 52.3714 125.461 50.4762 125.461C48.5597 125.461 47.0479 126.973 47.0479 128.889C47.0479 130.784 48.5597 132.317 50.4762 132.317Z" fill="#77FAC6"/>
<path d="M66.1588 132.317C68.054 132.317 69.5872 130.784 69.5872 128.889C69.5872 126.973 68.054 125.461 66.1588 125.461C64.2423 125.461 62.7305 126.973 62.7305 128.889C62.7305 130.784 64.2423 132.317 66.1588 132.317Z" fill="#77FAC6"/>
<path d="M3.42835 148C5.32352 148 6.8567 146.467 6.8567 144.572C6.8567 142.655 5.32352 141.143 3.42835 141.143C1.51188 141.143 0 142.655 0 144.572C0 146.467 1.51188 148 3.42835 148Z" fill="#77FAC6"/>
<path d="M19.111 148C21.0061 148 22.5393 146.467 22.5393 144.572C22.5393 142.655 21.0061 141.143 19.111 141.143C17.1945 141.143 15.6826 142.655 15.6826 144.572C15.6826 146.467 17.1945 148 19.111 148Z" fill="#77FAC6"/>
<path d="M34.7936 148C36.6888 148 38.2219 146.467 38.2219 144.572C38.2219 142.655 36.6888 141.143 34.7936 141.143C32.8771 141.143 31.3652 142.655 31.3652 144.572C31.3652 146.467 32.8771 148 34.7936 148Z" fill="#77FAC6"/>
<path d="M50.4762 148C52.3714 148 53.9045 146.467 53.9045 144.572C53.9045 142.655 52.3714 141.143 50.4762 141.143C48.5597 141.143 47.0479 142.655 47.0479 144.572C47.0479 146.467 48.5597 148 50.4762 148Z" fill="#77FAC6"/>
<path d="M66.1588 148C68.054 148 69.5872 146.467 69.5872 144.572C69.5872 142.655 68.054 141.143 66.1588 141.143C64.2423 141.143 62.7305 142.655 62.7305 144.572C62.7305 146.467 64.2423 148 66.1588 148Z" fill="#77FAC6"/>
</svg>
