<svg width="148" height="148" viewBox="0 0 148 148" fill="none" xmlns="http://www.w3.org/2000/svg">
<path d="M3.42835 6.8567C5.32352 6.8567 6.8567 5.32352 6.8567 3.42835C6.8567 1.51188 5.32352 0 3.42835 0C1.51188 0 0 1.51188 0 3.42835C0 5.32352 1.51188 6.8567 3.42835 6.8567Z" fill="white"/>
<path d="M19.111 6.8567C21.0061 6.8567 22.5393 5.32352 22.5393 3.42835C22.5393 1.51188 21.0061 0 19.111 0C17.1945 0 15.6826 1.51188 15.6826 3.42835C15.6826 5.32352 17.1945 6.8567 19.111 6.8567Z" fill="white"/>
<path d="M34.7936 6.8567C36.6888 6.8567 38.2219 5.32352 38.2219 3.42835C38.2219 1.51188 36.6888 0 34.7936 0C32.8771 0 31.3652 1.51188 31.3652 3.42835C31.3652 5.32352 32.8771 6.8567 34.7936 6.8567Z" fill="white"/>
<path d="M50.4762 6.8567C52.3714 6.8567 53.9045 5.32352 53.9045 3.42835C53.9045 1.51188 52.3714 0 50.4762 0C48.5597 0 47.0479 1.51188 47.0479 3.42835C47.0479 5.32352 48.5597 6.8567 50.4762 6.8567Z" fill="white"/>
<path d="M66.1586 6.8567C68.0537 6.8567 69.5869 5.32352 69.5869 3.42835C69.5869 1.51188 68.0537 0 66.1586 0C64.2421 0 62.7302 1.51188 62.7302 3.42835C62.7302 5.32352 64.2421 6.8567 66.1586 6.8567Z" fill="white"/>
<path d="M81.8414 6.8567C83.7366 6.8567 85.2698 5.32352 85.2698 3.42835C85.2698 1.51188 83.7366 0 81.8414 0C79.925 0 78.4131 1.51188 78.4131 3.42835C78.4131 5.32352 79.925 6.8567 81.8414 6.8567Z" fill="white"/>
<path d="M97.5238 6.8567C99.419 6.8567 100.952 5.32352 100.952 3.42835C100.952 1.51188 99.419 0 97.5238 0C95.6073 0 94.0955 1.51188 94.0955 3.42835C94.0955 5.32352 95.6073 6.8567 97.5238 6.8567Z" fill="white"/>
<path d="M113.206 6.8567C115.102 6.8567 116.635 5.32352 116.635 3.42835C116.635 1.51188 115.102 0 113.206 0C111.29 0 109.778 1.51188 109.778 3.42835C109.778 5.32352 111.29 6.8567 113.206 6.8567Z" fill="white"/>
<path d="M128.889 6.8567C130.784 6.8567 132.317 5.32352 132.317 3.42835C132.317 1.51188 130.784 0 128.889 0C126.973 0 125.461 1.51188 125.461 3.42835C125.461 5.32352 126.973 6.8567 128.889 6.8567Z" fill="white"/>
<path d="M144.572 6.8567C146.467 6.8567 148 5.32352 148 3.42835C148 1.51188 146.467 0 144.572 0C142.655 0 141.143 1.51188 141.143 3.42835C141.143 5.32352 142.655 6.8567 144.572 6.8567Z" fill="white"/>
<path d="M3.42835 22.5392C5.32352 22.5392 6.8567 21.006 6.8567 19.1108C6.8567 17.1944 5.32352 15.6825 3.42835 15.6825C1.51188 15.6825 0 17.1944 0 19.1108C0 21.006 1.51188 22.5392 3.42835 22.5392Z" fill="white"/>
<path d="M19.111 22.5392C21.0061 22.5392 22.5393 21.006 22.5393 19.1108C22.5393 17.1944 21.0061 15.6825 19.111 15.6825C17.1945 15.6825 15.6826 17.1944 15.6826 19.1108C15.6826 21.006 17.1945 22.5392 19.111 22.5392Z" fill="white"/>
<path d="M34.7936 22.5392C36.6888 22.5392 38.2219 21.006 38.2219 19.1108C38.2219 17.1944 36.6888 15.6825 34.7936 15.6825C32.8771 15.6825 31.3652 17.1944 31.3652 19.1108C31.3652 21.006 32.8771 22.5392 34.7936 22.5392Z" fill="white"/>
<path d="M50.4762 22.5392C52.3714 22.5392 53.9045 21.006 53.9045 19.1108C53.9045 17.1944 52.3714 15.6825 50.4762 15.6825C48.5597 15.6825 47.0479 17.1944 47.0479 19.1108C47.0479 21.006 48.5597 22.5392 50.4762 22.5392Z" fill="white"/>
<path d="M66.1588 22.5392C68.054 22.5392 69.5872 21.006 69.5872 19.1108C69.5872 17.1944 68.054 15.6825 66.1588 15.6825C64.2423 15.6825 62.7305 17.1944 62.7305 19.1108C62.7305 21.006 64.2423 22.5392 66.1588 22.5392Z" fill="white"/>
<path d="M81.8412 22.5392C83.7364 22.5392 85.2695 21.006 85.2695 19.1108C85.2695 17.1944 83.7364 15.6825 81.8412 15.6825C79.9247 15.6825 78.4128 17.1944 78.4128 19.1108C78.4128 21.006 79.9247 22.5392 81.8412 22.5392Z" fill="white"/>
<path d="M97.5238 22.5392C99.419 22.5392 100.952 21.006 100.952 19.1108C100.952 17.1944 99.419 15.6825 97.5238 15.6825C95.6073 15.6825 94.0955 17.1944 94.0955 19.1108C94.0955 21.006 95.6073 22.5392 97.5238 22.5392Z" fill="white"/>
<path d="M113.206 22.5392C115.102 22.5392 116.635 21.006 116.635 19.1108C116.635 17.1944 115.102 15.6825 113.206 15.6825C111.29 15.6825 109.778 17.1944 109.778 19.1108C109.778 21.006 111.29 22.5392 113.206 22.5392Z" fill="white"/>
<path d="M128.889 22.5392C130.784 22.5392 132.317 21.006 132.317 19.1108C132.317 17.1944 130.784 15.6825 128.889 15.6825C126.973 15.6825 125.461 17.1944 125.461 19.1108C125.461 21.006 126.973 22.5392 128.889 22.5392Z" fill="white"/>
<path d="M144.572 22.5392C146.467 22.5392 148 21.006 148 19.1108C148 17.1944 146.467 15.6825 144.572 15.6825C142.655 15.6825 141.143 17.1944 141.143 19.1108C141.143 21.006 142.655 22.5392 144.572 22.5392Z" fill="white"/>
<path d="M3.42835 38.2219C5.32352 38.2219 6.8567 36.6888 6.8567 34.7936C6.8567 32.8771 5.32352 31.3652 3.42835 31.3652C1.51188 31.3652 0 32.8771 0 34.7936C0 36.6888 1.51188 38.2219 3.42835 38.2219Z" fill="white"/>
<path d="M19.111 38.2219C21.0061 38.2219 22.5393 36.6888 22.5393 34.7936C22.5393 32.8771 21.0061 31.3652 19.111 31.3652C17.1945 31.3652 15.6826 32.8771 15.6826 34.7936C15.6826 36.6888 17.1945 38.2219 19.111 38.2219Z" fill="white"/>
<path d="M34.7936 38.2219C36.6888 38.2219 38.2219 36.6888 38.2219 34.7936C38.2219 32.8771 36.6888 31.3652 34.7936 31.3652C32.8771 31.3652 31.3652 32.8771 31.3652 34.7936C31.3652 36.6888 32.8771 38.2219 34.7936 38.2219Z" fill="white"/>
<path d="M50.4762 38.2219C52.3714 38.2219 53.9045 36.6888 53.9045 34.7936C53.9045 32.8771 52.3714 31.3652 50.4762 31.3652C48.5597 31.3652 47.0479 32.8771 47.0479 34.7936C47.0479 36.6888 48.5597 38.2219 50.4762 38.2219Z" fill="white"/>
<path d="M66.1588 38.2219C68.054 38.2219 69.5872 36.6888 69.5872 34.7936C69.5872 32.8771 68.054 31.3652 66.1588 31.3652C64.2423 31.3652 62.7305 32.8771 62.7305 34.7936C62.7305 36.6888 64.2423 38.2219 66.1588 38.2219Z" fill="white"/>
<path d="M81.8412 38.2219C83.7364 38.2219 85.2695 36.6888 85.2695 34.7936C85.2695 32.8771 83.7364 31.3652 81.8412 31.3652C79.9247 31.3652 78.4128 32.8771 78.4128 34.7936C78.4128 36.6888 79.9247 38.2219 81.8412 38.2219Z" fill="white"/>
<path d="M97.5238 38.2219C99.419 38.2219 100.952 36.6888 100.952 34.7936C100.952 32.8771 99.419 31.3652 97.5238 31.3652C95.6073 31.3652 94.0955 32.8771 94.0955 34.7936C94.0955 36.6888 95.6073 38.2219 97.5238 38.2219Z" fill="white"/>
<path d="M113.206 38.2219C115.102 38.2219 116.635 36.6888 116.635 34.7936C116.635 32.8771 115.102 31.3652 113.206 31.3652C111.29 31.3652 109.778 32.8771 109.778 34.7936C109.778 36.6888 111.29 38.2219 113.206 38.2219Z" fill="white"/>
<path d="M128.889 38.2219C130.784 38.2219 132.317 36.6888 132.317 34.7936C132.317 32.8771 130.784 31.3652 128.889 31.3652C126.973 31.3652 125.461 32.8771 125.461 34.7936C125.461 36.6888 126.973 38.2219 128.889 38.2219Z" fill="white"/>
<path d="M144.572 38.2219C146.467 38.2219 148 36.6888 148 34.7936C148 32.8771 146.467 31.3652 144.572 31.3652C142.655 31.3652 141.143 32.8771 141.143 34.7936C141.143 36.6888 142.655 38.2219 144.572 38.2219Z" fill="white"/>
<path d="M3.42835 53.9044C5.32352 53.9044 6.8567 52.3713 6.8567 50.4761C6.8567 48.5596 5.32352 47.0477 3.42835 47.0477C1.51188 47.0477 0 48.5596 0 50.4761C0 52.3713 1.51188 53.9044 3.42835 53.9044Z" fill="white"/>
<path d="M19.111 53.9044C21.0061 53.9044 22.5393 52.3713 22.5393 50.4761C22.5393 48.5596 21.0061 47.0477 19.111 47.0477C17.1945 47.0477 15.6826 48.5596 15.6826 50.4761C15.6826 52.3713 17.1945 53.9044 19.111 53.9044Z" fill="white"/>
<path d="M34.7936 53.9044C36.6888 53.9044 38.2219 52.3713 38.2219 50.4761C38.2219 48.5596 36.6888 47.0477 34.7936 47.0477C32.8771 47.0477 31.3652 48.5596 31.3652 50.4761C31.3652 52.3713 32.8771 53.9044 34.7936 53.9044Z" fill="white"/>
<path d="M50.4762 53.9044C52.3714 53.9044 53.9045 52.3713 53.9045 50.4761C53.9045 48.5596 52.3714 47.0477 50.4762 47.0477C48.5597 47.0477 47.0479 48.5596 47.0479 50.4761C47.0479 52.3713 48.5597 53.9044 50.4762 53.9044Z" fill="white"/>
<path d="M66.1588 53.9044C68.054 53.9044 69.5872 52.3713 69.5872 50.4761C69.5872 48.5596 68.054 47.0477 66.1588 47.0477C64.2423 47.0477 62.7305 48.5596 62.7305 50.4761C62.7305 52.3713 64.2423 53.9044 66.1588 53.9044Z" fill="white"/>
<path d="M81.8412 53.9044C83.7364 53.9044 85.2695 52.3713 85.2695 50.4761C85.2695 48.5596 83.7364 47.0477 81.8412 47.0477C79.9247 47.0477 78.4128 48.5596 78.4128 50.4761C78.4128 52.3713 79.9247 53.9044 81.8412 53.9044Z" fill="white"/>
<path d="M97.5238 53.9044C99.419 53.9044 100.952 52.3713 100.952 50.4761C100.952 48.5596 99.419 47.0477 97.5238 47.0477C95.6073 47.0477 94.0955 48.5596 94.0955 50.4761C94.0955 52.3713 95.6073 53.9044 97.5238 53.9044Z" fill="white"/>
<path d="M113.206 53.9044C115.102 53.9044 116.635 52.3713 116.635 50.4761C116.635 48.5596 115.102 47.0477 113.206 47.0477C111.29 47.0477 109.778 48.5596 109.778 50.4761C109.778 52.3713 111.29 53.9044 113.206 53.9044Z" fill="white"/>
<path d="M128.889 53.9044C130.784 53.9044 132.317 52.3713 132.317 50.4761C132.317 48.5596 130.784 47.0477 128.889 47.0477C126.973 47.0477 125.461 48.5596 125.461 50.4761C125.461 52.3713 126.973 53.9044 128.889 53.9044Z" fill="white"/>
<path d="M144.572 53.9044C146.467 53.9044 148 52.3713 148 50.4761C148 48.5596 146.467 47.0477 144.572 47.0477C142.655 47.0477 141.143 48.5596 141.143 50.4761C141.143 52.3713 142.655 53.9044 144.572 53.9044Z" fill="white"/>
<path d="M3.42835 69.5872C5.32352 69.5872 6.8567 68.054 6.8567 66.1588C6.8567 64.2423 5.32352 62.7305 3.42835 62.7305C1.51188 62.7305 0 64.2423 0 66.1588C0 68.054 1.51188 69.5872 3.42835 69.5872Z" fill="white"/>
<path d="M19.111 69.5872C21.0061 69.5872 22.5393 68.054 22.5393 66.1588C22.5393 64.2423 21.0061 62.7305 19.111 62.7305C17.1945 62.7305 15.6826 64.2423 15.6826 66.1588C15.6826 68.054 17.1945 69.5872 19.111 69.5872Z" fill="white"/>
<path d="M34.7936 69.5872C36.6888 69.5872 38.2219 68.054 38.2219 66.1588C38.2219 64.2423 36.6888 62.7305 34.7936 62.7305C32.8771 62.7305 31.3652 64.2423 31.3652 66.1588C31.3652 68.054 32.8771 69.5872 34.7936 69.5872Z" fill="white"/>
<path d="M50.4762 69.5872C52.3714 69.5872 53.9045 68.054 53.9045 66.1588C53.9045 64.2423 52.3714 62.7305 50.4762 62.7305C48.5597 62.7305 47.0479 64.2423 47.0479 66.1588C47.0479 68.054 48.5597 69.5872 50.4762 69.5872Z" fill="white"/>
<path d="M66.1586 69.5872C68.0537 69.5872 69.5869 68.054 69.5869 66.1588C69.5869 64.2423 68.0537 62.7305 66.1586 62.7305C64.2421 62.7305 62.7302 64.2423 62.7302 66.1588C62.7302 68.054 64.2421 69.5872 66.1586 69.5872Z" fill="white"/>
<path d="M81.8414 69.5872C83.7366 69.5872 85.2698 68.054 85.2698 66.1588C85.2698 64.2423 83.7366 62.7305 81.8414 62.7305C79.925 62.7305 78.4131 64.2423 78.4131 66.1588C78.4131 68.054 79.925 69.5872 81.8414 69.5872Z" fill="white"/>
<path d="M97.5238 69.5872C99.419 69.5872 100.952 68.054 100.952 66.1588C100.952 64.2423 99.419 62.7305 97.5238 62.7305C95.6073 62.7305 94.0955 64.2423 94.0955 66.1588C94.0955 68.054 95.6073 69.5872 97.5238 69.5872Z" fill="white"/>
<path d="M113.206 69.5872C115.102 69.5872 116.635 68.054 116.635 66.1588C116.635 64.2423 115.102 62.7305 113.206 62.7305C111.29 62.7305 109.778 64.2423 109.778 66.1588C109.778 68.054 111.29 69.5872 113.206 69.5872Z" fill="white"/>
<path d="M128.889 69.5872C130.784 69.5872 132.317 68.054 132.317 66.1588C132.317 64.2423 130.784 62.7305 128.889 62.7305C126.973 62.7305 125.461 64.2423 125.461 66.1588C125.461 68.054 126.973 69.5872 128.889 69.5872Z" fill="white"/>
<path d="M144.572 69.5872C146.467 69.5872 148 68.054 148 66.1588C148 64.2423 146.467 62.7305 144.572 62.7305C142.655 62.7305 141.143 64.2423 141.143 66.1588C141.143 68.054 142.655 69.5872 144.572 69.5872Z" fill="white"/>
<path d="M3.42835 85.2698C5.32352 85.2698 6.8567 83.7366 6.8567 81.8414C6.8567 79.925 5.32352 78.4131 3.42835 78.4131C1.51188 78.4131 0 79.925 0 81.8414C0 83.7366 1.51188 85.2698 3.42835 85.2698Z" fill="white"/>
<path d="M19.111 85.2698C21.0061 85.2698 22.5393 83.7366 22.5393 81.8414C22.5393 79.925 21.0061 78.4131 19.111 78.4131C17.1945 78.4131 15.6826 79.925 15.6826 81.8414C15.6826 83.7366 17.1945 85.2698 19.111 85.2698Z" fill="white"/>
<path d="M34.7936 85.2698C36.6888 85.2698 38.2219 83.7366 38.2219 81.8414C38.2219 79.925 36.6888 78.4131 34.7936 78.4131C32.8771 78.4131 31.3652 79.925 31.3652 81.8414C31.3652 83.7366 32.8771 85.2698 34.7936 85.2698Z" fill="white"/>
<path d="M50.4762 85.2698C52.3714 85.2698 53.9045 83.7366 53.9045 81.8414C53.9045 79.925 52.3714 78.4131 50.4762 78.4131C48.5597 78.4131 47.0479 79.925 47.0479 81.8414C47.0479 83.7366 48.5597 85.2698 50.4762 85.2698Z" fill="white"/>
<path d="M66.1586 85.2698C68.0537 85.2698 69.5869 83.7366 69.5869 81.8414C69.5869 79.925 68.0537 78.4131 66.1586 78.4131C64.2421 78.4131 62.7302 79.925 62.7302 81.8414C62.7302 83.7366 64.2421 85.2698 66.1586 85.2698Z" fill="white"/>
<path d="M81.8414 85.2698C83.7366 85.2698 85.2698 83.7366 85.2698 81.8414C85.2698 79.925 83.7366 78.4131 81.8414 78.4131C79.925 78.4131 78.4131 79.925 78.4131 81.8414C78.4131 83.7366 79.925 85.2698 81.8414 85.2698Z" fill="white"/>
<path d="M97.5238 85.2698C99.419 85.2698 100.952 83.7366 100.952 81.8414C100.952 79.925 99.419 78.4131 97.5238 78.4131C95.6073 78.4131 94.0955 79.925 94.0955 81.8414C94.0955 83.7366 95.6073 85.2698 97.5238 85.2698Z" fill="white"/>
<path d="M113.206 85.2698C115.102 85.2698 116.635 83.7366 116.635 81.8414C116.635 79.925 115.102 78.4131 113.206 78.4131C111.29 78.4131 109.778 79.925 109.778 81.8414C109.778 83.7366 111.29 85.2698 113.206 85.2698Z" fill="white"/>
<path d="M128.889 85.2698C130.784 85.2698 132.317 83.7366 132.317 81.8414C132.317 79.925 130.784 78.4131 128.889 78.4131C126.973 78.4131 125.461 79.925 125.461 81.8414C125.461 83.7366 126.973 85.2698 128.889 85.2698Z" fill="white"/>
<path d="M144.572 85.2698C146.467 85.2698 148 83.7366 148 81.8414C148 79.925 146.467 78.4131 144.572 78.4131C142.655 78.4131 141.143 79.925 141.143 81.8414C141.143 83.7366 142.655 85.2698 144.572 85.2698Z" fill="white"/>
<path d="M3.42835 100.952C5.32352 100.952 6.8567 99.419 6.8567 97.5238C6.8567 95.6073 5.32352 94.0955 3.42835 94.0955C1.51188 94.0955 0 95.6073 0 97.5238C0 99.419 1.51188 100.952 3.42835 100.952Z" fill="white"/>
<path d="M19.111 100.952C21.0061 100.952 22.5393 99.419 22.5393 97.5238C22.5393 95.6073 21.0061 94.0955 19.111 94.0955C17.1945 94.0955 15.6826 95.6073 15.6826 97.5238C15.6826 99.419 17.1945 100.952 19.111 100.952Z" fill="white"/>
<path d="M34.7936 100.952C36.6888 100.952 38.2219 99.419 38.2219 97.5238C38.2219 95.6073 36.6888 94.0955 34.7936 94.0955C32.8771 94.0955 31.3652 95.6073 31.3652 97.5238C31.3652 99.419 32.8771 100.952 34.7936 100.952Z" fill="white"/>
<path d="M50.4762 100.952C52.3714 100.952 53.9045 99.419 53.9045 97.5238C53.9045 95.6073 52.3714 94.0955 50.4762 94.0955C48.5597 94.0955 47.0479 95.6073 47.0479 97.5238C47.0479 99.419 48.5597 100.952 50.4762 100.952Z" fill="white"/>
<path d="M66.1588 100.952C68.054 100.952 69.5872 99.419 69.5872 97.5238C69.5872 95.6073 68.054 94.0955 66.1588 94.0955C64.2423 94.0955 62.7305 95.6073 62.7305 97.5238C62.7305 99.419 64.2423 100.952 66.1588 100.952Z" fill="white"/>
<path d="M81.8412 100.952C83.7364 100.952 85.2695 99.419 85.2695 97.5238C85.2695 95.6073 83.7364 94.0955 81.8412 94.0955C79.9247 94.0955 78.4128 95.6073 78.4128 97.5238C78.4128 99.419 79.9247 100.952 81.8412 100.952Z" fill="white"/>
<path d="M97.5238 100.952C99.419 100.952 100.952 99.419 100.952 97.5238C100.952 95.6073 99.419 94.0955 97.5238 94.0955C95.6073 94.0955 94.0955 95.6073 94.0955 97.5238C94.0955 99.419 95.6073 100.952 97.5238 100.952Z" fill="white"/>
<path d="M113.206 100.952C115.102 100.952 116.635 99.419 116.635 97.5238C116.635 95.6073 115.102 94.0955 113.206 94.0955C111.29 94.0955 109.778 95.6073 109.778 97.5238C109.778 99.419 111.29 100.952 113.206 100.952Z" fill="white"/>
<path d="M128.889 100.952C130.784 100.952 132.317 99.419 132.317 97.5238C132.317 95.6073 130.784 94.0955 128.889 94.0955C126.973 94.0955 125.461 95.6073 125.461 97.5238C125.461 99.419 126.973 100.952 128.889 100.952Z" fill="white"/>
<path d="M144.572 100.952C146.467 100.952 148 99.419 148 97.5238C148 95.6073 146.467 94.0955 144.572 94.0955C142.655 94.0955 141.143 95.6073 141.143 97.5238C141.143 99.419 142.655 100.952 144.572 100.952Z" fill="white"/>
<path d="M3.42835 116.635C5.32352 116.635 6.8567 115.102 6.8567 113.206C6.8567 111.29 5.32352 109.778 3.42835 109.778C1.51188 109.778 0 111.29 0 113.206C0 115.102 1.51188 116.635 3.42835 116.635Z" fill="white"/>
<path d="M19.111 116.635C21.0061 116.635 22.5393 115.102 22.5393 113.206C22.5393 111.29 21.0061 109.778 19.111 109.778C17.1945 109.778 15.6826 111.29 15.6826 113.206C15.6826 115.102 17.1945 116.635 19.111 116.635Z" fill="white"/>
<path d="M34.7936 116.635C36.6888 116.635 38.2219 115.102 38.2219 113.206C38.2219 111.29 36.6888 109.778 34.7936 109.778C32.8771 109.778 31.3652 111.29 31.3652 113.206C31.3652 115.102 32.8771 116.635 34.7936 116.635Z" fill="white"/>
<path d="M50.4762 116.635C52.3714 116.635 53.9045 115.102 53.9045 113.206C53.9045 111.29 52.3714 109.778 50.4762 109.778C48.5597 109.778 47.0479 111.29 47.0479 113.206C47.0479 115.102 48.5597 116.635 50.4762 116.635Z" fill="white"/>
<path d="M66.1588 116.635C68.054 116.635 69.5872 115.102 69.5872 113.206C69.5872 111.29 68.054 109.778 66.1588 109.778C64.2423 109.778 62.7305 111.29 62.7305 113.206C62.7305 115.102 64.2423 116.635 66.1588 116.635Z" fill="white"/>
<path d="M81.8412 116.635C83.7364 116.635 85.2695 115.102 85.2695 113.206C85.2695 111.29 83.7364 109.778 81.8412 109.778C79.9247 109.778 78.4128 111.29 78.4128 113.206C78.4128 115.102 79.9247 116.635 81.8412 116.635Z" fill="white"/>
<path d="M97.5238 116.635C99.419 116.635 100.952 115.102 100.952 113.206C100.952 111.29 99.419 109.778 97.5238 109.778C95.6073 109.778 94.0955 111.29 94.0955 113.206C94.0955 115.102 95.6073 116.635 97.5238 116.635Z" fill="white"/>
<path d="M113.206 116.635C115.102 116.635 116.635 115.102 116.635 113.206C116.635 111.29 115.102 109.778 113.206 109.778C111.29 109.778 109.778 111.29 109.778 113.206C109.778 115.102 111.29 116.635 113.206 116.635Z" fill="white"/>
<path d="M128.889 116.635C130.784 116.635 132.317 115.102 132.317 113.206C132.317 111.29 130.784 109.778 128.889 109.778C126.973 109.778 125.461 111.29 125.461 113.206C125.461 115.102 126.973 116.635 128.889 116.635Z" fill="white"/>
<path d="M144.572 116.635C146.467 116.635 148 115.102 148 113.206C148 111.29 146.467 109.778 144.572 109.778C142.655 109.778 141.143 111.29 141.143 113.206C141.143 115.102 142.655 116.635 144.572 116.635Z" fill="white"/>
<path d="M3.42835 132.317C5.32352 132.317 6.8567 130.784 6.8567 128.889C6.8567 126.973 5.32352 125.461 3.42835 125.461C1.51188 125.461 0 126.973 0 128.889C0 130.784 1.51188 132.317 3.42835 132.317Z" fill="white"/>
<path d="M19.111 132.317C21.0061 132.317 22.5393 130.784 22.5393 128.889C22.5393 126.973 21.0061 125.461 19.111 125.461C17.1945 125.461 15.6826 126.973 15.6826 128.889C15.6826 130.784 17.1945 132.317 19.111 132.317Z" fill="white"/>
<path d="M34.7936 132.317C36.6888 132.317 38.2219 130.784 38.2219 128.889C38.2219 126.973 36.6888 125.461 34.7936 125.461C32.8771 125.461 31.3652 126.973 31.3652 128.889C31.3652 130.784 32.8771 132.317 34.7936 132.317Z" fill="white"/>
<path d="M50.4762 132.317C52.3714 132.317 53.9045 130.784 53.9045 128.889C53.9045 126.973 52.3714 125.461 50.4762 125.461C48.5597 125.461 47.0479 126.973 47.0479 128.889C47.0479 130.784 48.5597 132.317 50.4762 132.317Z" fill="white"/>
<path d="M66.1588 132.317C68.054 132.317 69.5872 130.784 69.5872 128.889C69.5872 126.973 68.054 125.461 66.1588 125.461C64.2423 125.461 62.7305 126.973 62.7305 128.889C62.7305 130.784 64.2423 132.317 66.1588 132.317Z" fill="white"/>
<path d="M81.8412 132.317C83.7364 132.317 85.2695 130.784 85.2695 128.889C85.2695 126.973 83.7364 125.461 81.8412 125.461C79.9247 125.461 78.4128 126.973 78.4128 128.889C78.4128 130.784 79.9247 132.317 81.8412 132.317Z" fill="white"/>
<path d="M97.5238 132.317C99.419 132.317 100.952 130.784 100.952 128.889C100.952 126.973 99.419 125.461 97.5238 125.461C95.6073 125.461 94.0955 126.973 94.0955 128.889C94.0955 130.784 95.6073 132.317 97.5238 132.317Z" fill="white"/>
<path d="M113.206 132.317C115.102 132.317 116.635 130.784 116.635 128.889C116.635 126.973 115.102 125.461 113.206 125.461C111.29 125.461 109.778 126.973 109.778 128.889C109.778 130.784 111.29 132.317 113.206 132.317Z" fill="white"/>
<path d="M128.889 132.317C130.784 132.317 132.317 130.784 132.317 128.889C132.317 126.973 130.784 125.461 128.889 125.461C126.973 125.461 125.461 126.973 125.461 128.889C125.461 130.784 126.973 132.317 128.889 132.317Z" fill="white"/>
<path d="M144.572 132.317C146.467 132.317 148 130.784 148 128.889C148 126.973 146.467 125.461 144.572 125.461C142.655 125.461 141.143 126.973 141.143 128.889C141.143 130.784 142.655 132.317 144.572 132.317Z" fill="white"/>
<path d="M3.42835 148C5.32352 148 6.8567 146.467 6.8567 144.572C6.8567 142.655 5.32352 141.143 3.42835 141.143C1.51188 141.143 0 142.655 0 144.572C0 146.467 1.51188 148 3.42835 148Z" fill="white"/>
<path d="M19.111 148C21.0061 148 22.5393 146.467 22.5393 144.572C22.5393 142.655 21.0061 141.143 19.111 141.143C17.1945 141.143 15.6826 142.655 15.6826 144.572C15.6826 146.467 17.1945 148 19.111 148Z" fill="white"/>
<path d="M34.7936 148C36.6888 148 38.2219 146.467 38.2219 144.572C38.2219 142.655 36.6888 141.143 34.7936 141.143C32.8771 141.143 31.3652 142.655 31.3652 144.572C31.3652 146.467 32.8771 148 34.7936 148Z" fill="white"/>
<path d="M50.4762 148C52.3714 148 53.9045 146.467 53.9045 144.572C53.9045 142.655 52.3714 141.143 50.4762 141.143C48.5597 141.143 47.0479 142.655 47.0479 144.572C47.0479 146.467 48.5597 148 50.4762 148Z" fill="white"/>
<path d="M66.1586 148C68.0537 148 69.5869 146.467 69.5869 144.572C69.5869 142.655 68.0537 141.143 66.1586 141.143C64.2421 141.143 62.7302 142.655 62.7302 144.572C62.7302 146.467 64.2421 148 66.1586 148Z" fill="white"/>
<path d="M81.8414 148C83.7366 148 85.2698 146.467 85.2698 144.572C85.2698 142.655 83.7366 141.143 81.8414 141.143C79.925 141.143 78.4131 142.655 78.4131 144.572C78.4131 146.467 79.925 148 81.8414 148Z" fill="white"/>
<path d="M97.5238 148C99.419 148 100.952 146.467 100.952 144.572C100.952 142.655 99.419 141.143 97.5238 141.143C95.6073 141.143 94.0955 142.655 94.0955 144.572C94.0955 146.467 95.6073 148 97.5238 148Z" fill="white"/>
<path d="M113.206 148C115.102 148 116.635 146.467 116.635 144.572C116.635 142.655 115.102 141.143 113.206 141.143C111.29 141.143 109.778 142.655 109.778 144.572C109.778 146.467 111.29 148 113.206 148Z" fill="white"/>
<path d="M128.889 148C130.784 148 132.317 146.467 132.317 144.572C132.317 142.655 130.784 141.143 128.889 141.143C126.973 141.143 125.461 142.655 125.461 144.572C125.461 146.467 126.973 148 128.889 148Z" fill="white"/>
<path d="M144.572 148C146.467 148 148 146.467 148 144.572C148 142.655 146.467 141.143 144.572 141.143C142.655 141.143 141.143 142.655 141.143 144.572C141.143 146.467 142.655 148 144.572 148Z" fill="white"/>
</svg>
