<svg width="48" height="48" viewBox="0 0 48 48" fill="none" xmlns="http://www.w3.org/2000/svg">
<g clip-path="url(#clip0_11_2106)">
<path d="M33.7911 15.6953H22.511C21.6954 15.6953 21.071 16.3665 21.071 17.1353C21.071 17.9509 21.7423 18.5753 22.511 18.5753H33.7911C34.6067 18.5753 35.2311 17.9041 35.2311 17.1353C35.2311 16.3197 34.6085 15.6953 33.7911 15.6953Z" fill="#1C01CB"/>
<path d="M33.7911 22.2244H22.511C21.6954 22.2244 21.071 22.8956 21.071 23.6644C21.071 24.48 21.7423 25.1044 22.511 25.1044H33.7911C34.6067 25.1044 35.2311 24.4331 35.2311 23.6644C35.2311 22.8487 34.6085 22.2244 33.7911 22.2244Z" fill="#1C01CB"/>
<path d="M15.9845 14.2554H8.54447C7.20009 14.2554 6.0957 15.3598 6.0957 16.7041V24.0952C6.0957 25.4396 7.20009 26.5439 8.54447 26.5439H15.9845C17.3289 26.5439 18.4332 25.4396 18.4332 24.0952L18.4314 16.7041C18.4314 15.3598 17.3289 14.2554 15.9845 14.2554H15.9845ZM15.5513 23.6154H9.02431V17.1843H15.5533L15.5513 23.6154Z" fill="#1C01CB"/>
<path d="M44.3046 13.0554H40.8002V11.231C40.8002 9.16663 39.169 7.5354 37.1046 7.5354H3.69562C1.68 7.5354 0 9.2154 0 11.231V29.5665C0 31.6309 1.63123 33.2622 3.69562 33.2622L5.76 33.264V36.5284C5.76 38.5928 7.39123 40.224 9.45562 40.224H44.3046C46.3202 40.224 48.0002 38.544 48.0002 36.5284V16.751C48.0002 14.6885 46.369 13.0554 44.3046 13.0554V13.0554ZM2.92906 29.5684V11.2309C2.92906 10.7997 3.26468 10.4153 3.69782 10.4153H37.1068C37.538 10.4153 37.8756 10.7509 37.8756 11.2309V29.5664C37.8756 29.9977 37.5399 30.3821 37.1068 30.3821L3.69638 30.3839C3.26513 30.3839 2.92949 29.9996 2.92949 29.5683L2.92906 29.5684ZM45.0716 36.5754C45.0716 37.0066 44.736 37.391 44.3029 37.391H9.45581C9.02456 37.391 8.68704 37.0554 8.68704 36.5754V33.311H37.1026C39.1182 33.311 40.7982 31.631 40.7982 29.6154L40.8001 15.9354H44.3513C44.7825 15.9354 45.1201 16.271 45.1201 16.751L45.0716 36.5754Z" fill="#1C01CB"/>
</g>
<defs>
<clipPath id="clip0_11_2106">
<rect width="48" height="48" fill="white"/>
</clipPath>
</defs>
</svg>
