<svg width="48" height="48" viewBox="0 0 48 48" fill="none" xmlns="http://www.w3.org/2000/svg">
<path d="M27.9994 27.9994C32.4187 27.9994 36 24.4182 36 20.0007C36 15.5813 32.4188 12 27.9994 12C23.5819 12 20.0006 15.5813 20.0006 20.0007C20.0006 24.4182 23.5819 27.9994 27.9994 27.9994ZM37.3498 27.5213L46.7323 36.9038C47.5104 37.682 47.5142 38.942 46.7286 39.7276C45.9467 40.5094 44.6811 40.5094 43.9029 39.7313L34.3534 30.1817C32.5102 31.3348 30.3334 32.0005 27.9991 32.0005C21.3727 32.0005 15.9991 26.6269 15.9991 20.0005C15.9991 13.3722 21.3727 8.00049 27.9991 8.00049C34.6274 8.00049 39.9991 13.3722 39.9991 20.0005C39.9991 22.8486 39.0072 25.4643 37.3498 27.5211L37.3498 27.5213ZM0 15C0 13.8956 0.678768 12.9993 1.49626 12.9993H10.5039C11.3308 12.9993 12.0002 13.8881 12.0002 15C12.0002 16.1044 11.3214 17.0006 10.5039 17.0006H1.49626C0.66936 17.0006 0 16.1119 0 15H0ZM0 27C0 25.8956 0.678768 24.9993 1.49626 24.9993H10.5039C11.3308 24.9993 12.0002 25.8881 12.0002 27C12.0002 28.1044 11.3214 29.0006 10.5039 29.0006H1.49626C0.66936 29.0006 0 28.1119 0 27H0ZM0 39C0 37.8956 0.658128 36.9993 1.49813 36.9993H30.002C30.8289 36.9993 31.5001 37.8881 31.5001 39C31.5001 40.1044 30.842 41.0006 30.002 41.0006H1.49813C0.671232 41.0006 0 40.1119 0 39H0Z" fill="#1C01CB"/>
</svg>
