<svg width="48" height="48" viewBox="0 0 48 48" fill="none" xmlns="http://www.w3.org/2000/svg">
<g clip-path="url(#clip0_11_2093)">
<path d="M11.2464 47.9998H3.78385C1.71573 47.9998 0.0319824 46.3161 0.0319824 44.2461V21.7537C0.0319824 19.6837 1.71385 18 3.78385 18H11.2483C13.3165 18 15.0002 19.6837 15.0002 21.7537V44.248C15.0002 46.3161 13.3165 47.9999 11.2465 47.9999L11.2464 47.9998ZM3.78385 20.9998C3.36948 20.9998 3.03198 21.3373 3.03198 21.7536V44.2478C3.03198 44.6603 3.36948 44.9997 3.78385 44.9997H11.2483C11.6627 44.9997 12.0002 44.6603 12.0002 44.2459V21.7536C12.0002 21.3373 11.6627 20.9999 11.2465 20.9999L3.78385 20.9998Z" fill="#1C01CB"/>
<path d="M38.7413 47.9998H20.5613C19.6351 47.9998 18.7107 47.7804 17.8801 47.3661L12.8291 44.8405C12.0884 44.4692 11.7884 43.5692 12.1578 42.8267C12.5291 42.0861 13.4291 41.7861 14.1716 42.1555L19.2226 44.6811C19.637 44.8911 20.0982 44.9999 20.5614 44.9999H38.7414C39.2889 44.9999 39.7989 44.7036 40.0726 44.2273L41.7657 41.263C43.8807 37.5598 45.0001 33.3449 45.0001 29.0791V24.0036C45.0001 22.3461 43.6539 20.9998 41.9964 20.9998H30.7053C29.7116 20.9998 28.7834 20.5086 28.2266 19.6836C27.6697 18.8605 27.5572 17.8161 27.9266 16.8936C29.3028 13.4567 30.0003 9.83423 30.0003 6.12719V4.38906C30.0003 3.62404 29.3778 2.9997 28.6109 2.9997H27.6772C27.0603 2.9997 26.5109 3.41408 26.3422 4.0066L25.7534 6.0635C24.4934 10.4698 22.4047 14.5158 19.5418 18.0952C18.068 19.9402 15.8668 20.9996 13.5005 20.9996H9.00049C8.17172 20.9996 7.50049 20.3283 7.50049 19.4996C7.50049 18.6708 8.17172 17.9996 9.00049 17.9996H13.5005C14.948 17.9996 16.298 17.3508 17.2017 16.2183C19.8136 12.9521 21.7205 9.25641 22.87 5.23641L23.4588 3.17951C23.9951 1.30828 25.7294 -0.000488281 27.6794 -0.000488281H28.6132C31.032 -0.000488281 33.0007 1.96828 33.0007 4.38887V6.127C33.0007 10.2182 32.23 14.216 30.7132 18.0089L41.997 17.9995C45.3083 17.9995 48.0009 20.6921 48.0009 24.0034V29.0789C48.0009 33.8677 46.7446 38.5963 44.369 42.7531L42.6759 45.7175C41.8696 47.1257 40.3622 47.9994 38.7422 47.9994L38.7413 47.9998Z" fill="#1C01CB"/>
<path d="M9 40.5C9 42.5006 6 42.5006 6 40.5C6 38.4994 9 38.4994 9 40.5Z" fill="#1C01CB"/>
</g>
<defs>
<clipPath id="clip0_11_2093">
<rect width="48" height="48" fill="white"/>
</clipPath>
</defs>
</svg>
